<svg width="34" height="34" viewBox="0 0 34 34" fill="none" xmlns="http://www.w3.org/2000/svg">
<path d="M19.4658 31.0394C19.2288 30.9969 18.585 31.2869 18.5603 30.958C18.6381 27.4915 18.7053 24.025 18.8008 20.5585C18.8928 20.1623 21.3688 20.3073 21.8923 20.1941C22.6741 20.0739 22.5998 19.0339 22.7802 18.4397C22.7979 17.5553 23.5337 15.8362 22.1435 15.7549C21.5952 15.6099 19.3172 15.9424 19.2394 15.4401C18.6133 13.7528 20.4315 13.5406 21.6483 13.4026C22.8828 13.2788 22.5184 10.541 22.7095 9.59654C22.8474 8.09675 19.9822 8.46462 19.006 8.36914C17.1808 8.39744 15.214 9.12256 14.4429 10.9018C13.7744 12.1964 13.6683 13.6396 13.5268 15.0616C13.4206 15.3658 12.2923 15.2102 11.9491 15.2915C10.2867 15.288 11.0153 18.4432 10.8809 19.5433C10.9446 20.7353 12.5788 20.3498 13.3923 20.3745C13.8239 20.5903 13.5126 22.5146 13.6046 23.0664C13.6223 23.0664 13.6364 23.0664 13.6541 23.0664C13.5621 25.5495 13.4383 28.0327 13.2898 30.5158C13.2544 30.7457 13.3817 31.248 12.9891 31.0924C11.4822 30.9792 14.7153 30.675 13.2544 30.0949V31.0995L18.6062 31.1348V30.6255C17.2798 30.8271 21.7969 30.8589 20.4562 30.9792C20.1202 31.0676 19.7912 31.0111 19.4658 31.0394Z" fill="white"/>
<path d="M30.7849 18.7934C30.7 15.8398 30.562 12.8862 30.3568 9.92907C29.4902 3.09864 24.6902 2.4301 18.8325 2.9996C16.6995 3.10218 14.5383 2.87933 12.3876 3.07388C10.5164 3.16938 8.52498 3.25782 6.88016 4.26594C5.0974 5.30942 4.16707 7.23014 3.80628 9.2004C3.48086 10.8523 3.20496 12.5006 3.18727 14.1914C3.04578 16.3952 3.1236 18.6024 3.31461 20.8061C3.47025 22.7268 3.6542 24.6617 4.3687 26.4692C5.1292 28.3086 6.63961 29.444 8.39054 30.1374C9.85144 30.7174 11.4786 30.9863 12.9854 31.0995C13.3781 31.2551 13.2543 30.7564 13.2861 30.5229C13.4347 28.0398 13.562 25.5601 13.6504 23.0735C13.6327 23.0735 13.6186 23.0735 13.6009 23.0735C13.509 22.5181 13.8202 20.5974 13.3887 20.3816C12.5716 20.3569 10.9409 20.7424 10.8773 19.5504C11.0117 18.4503 10.2795 15.295 11.9455 15.2986C12.2886 15.2208 13.417 15.3764 13.5231 15.0687C13.6646 13.6467 13.7742 12.2035 14.4392 10.9089C15.2104 9.12964 17.1771 8.40452 19.0023 8.37622C19.9786 8.46816 22.8437 8.10383 22.7058 9.60362C22.5183 10.5481 22.8791 13.2859 21.6446 13.4097C20.4278 13.5477 18.6097 13.7599 19.2358 15.4472C19.3136 15.9494 21.5915 15.6169 22.1398 15.762C23.53 15.8433 22.7942 17.566 22.7765 18.4467C22.5961 19.041 22.6739 20.081 21.8887 20.2012C21.3652 20.3179 18.8891 20.1729 18.7971 20.5655C18.7016 24.0321 18.6309 27.4986 18.5566 30.965C18.5814 31.294 19.2251 31.0004 19.4621 31.0464C19.7911 31.0181 20.1165 31.0747 20.4526 30.9898C21.7932 30.8696 23.1904 30.8377 24.5168 30.6361C26.5012 30.3319 28.3229 29.6421 29.5256 27.6825C31.1103 25.0331 30.9157 21.7647 30.7849 18.7934Z" fill="black"/>
</svg>
