<svg width="40" height="40" viewBox="0 0 40 40" fill="none" xmlns="http://www.w3.org/2000/svg">
<path d="M33.4375 17.735V9.64874C33.4375 8.20374 32.2262 6.99249 30.7812 6.99249H9.53125C8.08625 6.99249 6.875 8.20374 6.875 9.64874V17.735H13.32C14.3363 14.9612 17.0312 12.9687 20.1562 12.9687C23.2812 12.9687 25.9762 14.9612 26.9925 17.735H33.4375ZM33.4375 20.0787H27.4613V20.2737C27.4613 24.2975 24.18 27.5787 20.1562 27.5787C16.1325 27.5787 12.8513 24.2975 12.8513 20.2737V20.0787H6.875V30.8987C6.875 32.3437 8.08625 33.555 9.53125 33.555H30.7812C32.2262 33.555 33.4375 32.3437 33.4375 30.8987V20.0787ZM9.18 9.33624H10.5087V15.43H9.18V9.33624ZM11.8363 9.33624H13.165V15.43H11.8363V9.33624ZM14.4925 9.33624H15.8212V13.165C15.3912 13.4775 14.9225 13.8287 14.4925 14.1812V9.33624ZM20.1562 25.2737C22.93 25.2737 25.1175 23.0475 25.1175 20.2737C25.1175 17.5 22.93 15.3125 20.1562 15.3125C17.3825 15.3125 15.1562 17.5 15.1562 20.2737C15.1562 23.0475 17.3825 25.2737 20.1562 25.2737ZM24.805 9.33624H31.0938V15.43H26.875C26.3275 14.61 25.5863 13.945 24.805 13.3987V9.33624Z" fill="black"/>
</svg>
