<svg width="30" height="30" viewBox="0 0 30 30" fill="none" xmlns="http://www.w3.org/2000/svg">
<g clip-path="url(#clip0_7_252)">
<path d="M25.625 2.56251H4.375C4.13177 2.55412 3.88935 2.5948 3.66218 2.68212C3.43501 2.76944 3.22775 2.90162 3.05277 3.07077C2.87779 3.23991 2.73867 3.44257 2.6437 3.66665C2.54873 3.89073 2.49986 4.13164 2.5 4.37501V25.6875C2.49986 25.9309 2.54873 26.1718 2.6437 26.3959C2.73867 26.6199 2.87779 26.8226 3.05277 26.9918C3.22775 27.1609 3.43501 27.2931 3.66218 27.3804C3.88935 27.4677 4.13177 27.5084 4.375 27.5H25.625C26.1057 27.5 26.5667 27.309 26.9066 26.9691C27.2465 26.6292 27.4375 26.1682 27.4375 25.6875V4.37501C27.4375 3.8943 27.2465 3.43329 26.9066 3.09338C26.5667 2.75347 26.1057 2.56251 25.625 2.56251ZM9.9375 23.8125H6.1875V11.9375H9.9375V23.8125ZM8.0625 10.3125C7.49324 10.2962 6.95277 10.0586 6.55595 9.65012C6.15914 9.24164 5.93727 8.6945 5.9375 8.12501C5.9375 7.56142 6.16138 7.02092 6.5599 6.62241C6.95841 6.22389 7.49892 6.00001 8.0625 6.00001C8.62609 6.00001 9.16659 6.22389 9.5651 6.62241C9.96362 7.02092 10.1875 7.56142 10.1875 8.12501C10.1877 8.6945 9.96586 9.24164 9.56905 9.65012C9.17224 10.0586 8.63176 10.2962 8.0625 10.3125ZM23.75 23.8125H20.0625V18C20.0625 16.625 20.0625 14.875 18.125 14.875C16.1875 14.875 15.9375 16.375 15.9375 17.9375V23.8125H12.25V11.9375H15.75V13.5625H15.8125C16.1645 12.9518 16.6764 12.4486 17.2931 12.1072C17.9099 11.7658 18.6081 11.5991 19.3125 11.625C23.0625 11.625 23.75 14.0625 23.75 17.3125V23.8125Z" fill="black"/>
</g>
<defs>
<clipPath id="clip0_7_252">
<rect width="30" height="30" fill="white"/>
</clipPath>
</defs>
</svg>
