<svg width="36" height="36" viewBox="0 0 36 36" fill="none" xmlns="http://www.w3.org/2000/svg">
<path d="M10.5957 11.4718C12.592 13.1235 15.0788 13.8239 17.6444 13.764C17.8279 13.7752 17.8916 13.7003 17.9403 13.5355C18.7043 10.2022 22.6219 8.29207 25.1612 11.0823C25.6369 10.94 26.8167 10.0374 27.1987 10.2883C27.356 10.4119 27.3972 10.6029 27.2437 10.7228C26.8616 11.0861 26.6369 11.543 26.4234 12.0149C26.8579 11.9325 27.326 11.6816 27.768 11.7752C28.8242 12.4943 26.1088 13.0486 26.2849 14.5018C26.1837 19.2958 23.8879 23.7865 19.0002 25.1085C16.2249 25.9101 13.0939 26.3108 10.371 25.1123C9.16873 24.3932 10.5882 24.0786 11.2362 23.9063C12.0414 23.6217 12.8129 23.2284 13.5058 22.7378C12.4759 21.9176 8.81293 20.5243 11.7605 19.5393C10.7343 18.8614 6.82419 15.7228 9.97401 15.5018C9.60321 14.2734 9.38597 13.0374 9.09009 11.7939C8.96274 10.6704 10.0451 10.8726 10.5957 11.4718Z" fill="white"/>
<path d="M23.5322 32.8127C18.9591 32.8801 14.1614 33.3258 9.64453 32.322C5.70444 31.4119 3.7419 28.2359 3.44228 24.3745C3.32992 19.1123 2.79808 13.588 4.41605 8.50555C6.62581 2.49058 11.9217 3.25462 17.2026 3.02241C19.8093 3.13852 22.4722 2.74901 25.0415 3.38946C28.1239 3.85761 30.9966 6.05613 31.9254 9.08234C32.4236 10.3221 32.4236 11.6891 32.5284 12.9962C32.6707 16.1086 32.7344 19.2209 32.6595 22.3333C32.3075 28.6142 30.4722 32.6853 23.5322 32.8127ZM17.6445 13.764C15.079 13.8239 12.5921 13.1235 10.5958 11.4718C10.0453 10.8726 8.96289 10.6704 9.0902 11.7977C9.38236 13.0411 9.60331 14.2771 9.97411 15.5056C6.8243 15.7266 10.7344 18.8614 11.7606 19.543C8.81308 20.528 12.476 21.9213 13.5059 22.7415C12.8131 23.2359 12.0415 23.6254 11.2363 23.9101C10.5883 24.0786 9.16888 24.3932 10.3711 25.1161C13.094 26.3146 16.2213 25.9138 19.0003 25.1123C23.8842 23.7865 26.1839 19.2921 26.285 14.5018C26.1089 13.0486 28.8206 12.4981 27.7681 11.7752C27.3262 11.6816 26.858 11.9325 26.4236 12.0149C26.6371 11.5468 26.8617 11.0898 27.2438 10.7228C27.3973 10.6029 27.3599 10.4119 27.1988 10.2883C26.8205 10.0374 25.637 10.94 25.1614 11.0823C22.6183 8.29206 18.7045 10.2022 17.9404 13.5355C17.8917 13.7003 17.828 13.7752 17.6445 13.764Z" fill="black"/>
</svg>
